<svg width="25" height="28" viewBox="0 0 25 28" fill="none" xmlns="http://www.w3.org/2000/svg">
<path d="M24.463 15.8427L22.3521 8.24805C21.7334 6.02312 20.3887 4.06885 18.5318 2.69588C16.6749 1.32291 14.4124 0.610025 12.1038 0.670552C9.79523 0.731078 7.57314 1.56154 5.79073 3.02993C4.00833 4.49832 2.7679 6.52037 2.26662 8.77466L0.632365 16.1238C0.451847 16.9359 0.456021 17.7781 0.644578 18.5883C0.833135 19.3986 1.20126 20.1561 1.72178 20.805C2.24229 21.4539 2.90191 21.9776 3.65192 22.3375C4.40193 22.6974 5.2232 22.8842 6.05508 22.8842H7.29271C7.5477 24.1399 8.22897 25.2689 9.22109 26.0798C10.2132 26.8907 11.4552 27.3337 12.7365 27.3337C14.0179 27.3337 15.2599 26.8907 16.252 26.0798C17.2441 25.2689 17.9254 24.1399 18.1804 22.8842H19.1114C19.9677 22.8842 20.8125 22.6863 21.5797 22.3058C22.3469 21.9254 23.0157 21.3727 23.534 20.6909C24.0522 20.0092 24.4058 19.2168 24.5672 18.3758C24.7285 17.5348 24.6932 16.6679 24.4641 15.8427H24.463ZM12.7365 25.1061C12.0497 25.1033 11.3804 24.8883 10.8204 24.4905C10.2604 24.0928 9.83696 23.5318 9.608 22.8842H15.8651C15.6361 23.5318 15.2127 24.0928 14.6526 24.4905C14.0926 24.8883 13.4234 25.1033 12.7365 25.1061ZM21.7644 19.3457C21.4548 19.7564 21.0537 20.0892 20.593 20.3177C20.1322 20.5463 19.6245 20.6642 19.1102 20.6622H6.05508C5.55601 20.6621 5.06332 20.5499 4.6134 20.334C4.16347 20.118 3.76779 19.8038 3.45555 19.4144C3.14332 19.0251 2.9225 18.5706 2.80941 18.0845C2.69631 17.5984 2.69382 17.0932 2.80212 16.606L4.43526 9.25572C4.82894 7.48504 5.80322 5.89677 7.20323 4.7434C8.60323 3.59003 10.3486 2.93774 12.1619 2.89024C13.9752 2.84274 15.7523 3.40274 17.2108 4.48123C18.6693 5.55972 19.7254 7.09479 20.2112 8.84243L22.3221 16.4371C22.4616 16.9319 22.4838 17.4524 22.387 17.9573C22.2902 18.4622 22.077 18.9376 21.7644 19.3457Z" fill="white"/>
</svg>
