<svg width="32" height="32" viewBox="0 0 32 32" fill="none" xmlns="http://www.w3.org/2000/svg">
<path d="M27.963 17.8424L25.8521 10.2477C25.2334 8.02279 23.8887 6.06852 22.0318 4.69554C20.1749 3.32257 17.9124 2.60969 15.6038 2.67022C13.2952 2.73074 11.0731 3.5612 9.29073 5.02959C7.50833 6.49798 6.2679 8.52003 5.76662 10.7743L4.13236 18.1235C3.95185 18.9355 3.95602 19.7778 4.14458 20.588C4.33313 21.3982 4.70126 22.1558 5.22178 22.8047C5.74229 23.4536 6.40191 23.9773 7.15192 24.3372C7.90193 24.697 8.7232 24.8838 9.55508 24.8838H10.7927C11.0477 26.1395 11.729 27.2685 12.7211 28.0794C13.7132 28.8903 14.9552 29.3333 16.2365 29.3333C17.5179 29.3333 18.7599 28.8903 19.752 28.0794C20.7441 27.2685 21.4254 26.1395 21.6804 24.8838H22.6114C23.4677 24.8839 24.3125 24.6859 25.0797 24.3055C25.8469 23.925 26.5157 23.3723 27.034 22.6906C27.5522 22.0088 27.9058 21.2165 28.0672 20.3755C28.2285 19.5345 28.1932 18.6675 27.9641 17.8424H27.963ZM16.2365 27.1058C15.5497 27.1029 14.8804 26.8879 14.3204 26.4902C13.7604 26.0925 13.337 25.5314 13.108 24.8838H19.3651C19.1361 25.5314 18.7127 26.0925 18.1526 26.4902C17.5926 26.8879 16.9234 27.1029 16.2365 27.1058ZM25.2644 21.3453C24.9548 21.756 24.5537 22.0889 24.093 22.3174C23.6322 22.5459 23.1245 22.6639 22.6102 22.6618H9.55508C9.05601 22.6618 8.56332 22.5496 8.1134 22.3336C7.66347 22.1177 7.26779 21.8034 6.95555 21.4141C6.64332 21.0248 6.4225 20.5703 6.30941 20.0842C6.19631 19.5981 6.19382 19.0928 6.30212 18.6056L7.93526 11.2554C8.32894 9.4847 9.30322 7.89644 10.7032 6.74306C12.1032 5.58969 13.8486 4.93741 15.6619 4.8899C17.4752 4.8424 19.2523 5.4024 20.7108 6.48089C22.1693 7.55938 23.2254 9.09446 23.7112 10.8421L25.8221 18.4368C25.9616 18.9316 25.9838 19.4521 25.887 19.957C25.7902 20.4619 25.577 20.9372 25.2644 21.3453Z" fill="#003683"/>
</svg>
