<svg width="291" height="104" viewBox="0 0 291 104" fill="none" xmlns="http://www.w3.org/2000/svg">
<g filter="url(#filter0_f_1111_192)">
<rect x="30" y="30" width="231" height="44" fill="#F5F5F5"/>
</g>
<g filter="url(#filter1_i_1111_192)">
<path d="M98.0513 37.25V60H92.5825L84.5356 45.8438V60H79.0513V37.25H84.5356L92.5825 51.4062V37.25H98.0513ZM133.176 55.7812V60H121.051V55.7812H133.176ZM123.004 37.25V60H117.52V37.25H123.004ZM131.614 46.2812V50.3594H121.051V46.2812H131.614ZM133.223 37.25V41.4844H121.051V37.25H133.223ZM156.676 57.9375L161.208 37.25H163.911L165.379 39.0156L160.551 60H157.567L156.676 57.9375ZM155.473 37.25L159.301 58.0938L158.317 60H154.864L150.036 37.25H155.473ZM167.864 57.9844L171.661 37.25H177.083L172.254 60H168.817L167.864 57.9844ZM165.864 37.25L170.504 58.0625L169.567 60H166.583L161.645 38.9844L163.176 37.25H165.864ZM206.958 53.9531C206.958 53.599 206.905 53.2812 206.801 53C206.697 52.7083 206.504 52.4375 206.223 52.1875C205.942 51.9375 205.536 51.6875 205.004 51.4375C204.484 51.1771 203.796 50.9062 202.942 50.625C201.942 50.2917 200.978 49.9167 200.051 49.5C199.124 49.0729 198.296 48.5781 197.567 48.0156C196.838 47.4427 196.26 46.776 195.833 46.0156C195.405 45.2448 195.192 44.349 195.192 43.3281C195.192 42.349 195.411 41.4688 195.848 40.6875C196.286 39.8958 196.895 39.224 197.676 38.6719C198.468 38.1094 199.395 37.6823 200.458 37.3906C201.52 37.0885 202.681 36.9375 203.942 36.9375C205.609 36.9375 207.077 37.2292 208.348 37.8125C209.629 38.3854 210.629 39.2031 211.348 40.2656C212.077 41.3177 212.442 42.5625 212.442 44H206.989C206.989 43.4271 206.869 42.9219 206.629 42.4844C206.4 42.0469 206.051 41.7031 205.583 41.4531C205.114 41.2031 204.525 41.0781 203.817 41.0781C203.129 41.0781 202.551 41.1823 202.083 41.3906C201.614 41.599 201.26 41.8802 201.02 42.2344C200.78 42.5781 200.661 42.9583 200.661 43.375C200.661 43.7188 200.754 44.0312 200.942 44.3125C201.14 44.5833 201.416 44.8385 201.77 45.0781C202.135 45.3177 202.572 45.5469 203.083 45.7656C203.603 45.9844 204.187 46.1979 204.833 46.4062C206.041 46.7917 207.114 47.224 208.051 47.7031C208.999 48.1719 209.796 48.7083 210.442 49.3125C211.098 49.9062 211.593 50.5833 211.926 51.3438C212.27 52.1042 212.442 52.9635 212.442 53.9219C212.442 54.9427 212.244 55.849 211.848 56.6406C211.452 57.4323 210.885 58.1042 210.145 58.6562C209.405 59.1979 208.52 59.6094 207.489 59.8906C206.458 60.1719 205.306 60.3125 204.036 60.3125C202.869 60.3125 201.718 60.1667 200.583 59.875C199.458 59.5729 198.437 59.1146 197.52 58.5C196.603 57.875 195.869 57.0781 195.317 56.1094C194.775 55.1302 194.504 53.9688 194.504 52.625H200.004C200.004 53.2917 200.093 53.8542 200.27 54.3125C200.447 54.7708 200.708 55.1406 201.051 55.4219C201.395 55.6927 201.817 55.8906 202.317 56.0156C202.817 56.1302 203.39 56.1875 204.036 56.1875C204.734 56.1875 205.296 56.0885 205.723 55.8906C206.15 55.6823 206.463 55.4115 206.661 55.0781C206.859 54.7344 206.958 54.3594 206.958 53.9531Z" fill="#E0E0E0"/>
<path d="M77.3169 68H213.536V69.5625H77.3169V68Z" fill="#E0E0E0"/>
</g>
<defs>
<filter id="filter0_f_1111_192" x="0" y="0" width="291" height="104" filterUnits="userSpaceOnUse" color-interpolation-filters="sRGB">
<feFlood flood-opacity="0" result="BackgroundImageFix"/>
<feBlend mode="normal" in="SourceGraphic" in2="BackgroundImageFix" result="shape"/>
<feGaussianBlur stdDeviation="15" result="effect1_foregroundBlur_1111_192"/>
</filter>
<filter id="filter1_i_1111_192" x="77.3169" y="36.9375" width="136.219" height="36.625" filterUnits="userSpaceOnUse" color-interpolation-filters="sRGB">
<feFlood flood-opacity="0" result="BackgroundImageFix"/>
<feBlend mode="normal" in="SourceGraphic" in2="BackgroundImageFix" result="shape"/>
<feColorMatrix in="SourceAlpha" type="matrix" values="0 0 0 0 0 0 0 0 0 0 0 0 0 0 0 0 0 0 127 0" result="hardAlpha"/>
<feOffset dy="4"/>
<feGaussianBlur stdDeviation="2"/>
<feComposite in2="hardAlpha" operator="arithmetic" k2="-1" k3="1"/>
<feColorMatrix type="matrix" values="0 0 0 0 0 0 0 0 0 0 0 0 0 0 0 0 0 0 0.25 0"/>
<feBlend mode="normal" in2="shape" result="effect1_innerShadow_1111_192"/>
</filter>
</defs>
</svg>
