<svg width="558" height="104" viewBox="0 0 558 104" fill="none" xmlns="http://www.w3.org/2000/svg">
<g filter="url(#filter0_f_1111_189)">
<rect x="30" y="30" width="498" height="44" fill="#F5F5F5"/>
</g>
<g filter="url(#filter1_i_1111_189)">
<path d="M98.844 37.25V60H93.3596V37.25H98.844ZM105.688 37.25V41.4844H86.6721V37.25H105.688ZM142.828 48.1719V49.0938C142.828 50.8333 142.584 52.3958 142.094 53.7812C141.615 55.1562 140.933 56.3333 140.047 57.3125C139.162 58.2812 138.115 59.026 136.906 59.5469C135.698 60.0573 134.365 60.3125 132.906 60.3125C131.438 60.3125 130.094 60.0573 128.875 59.5469C127.667 59.026 126.615 58.2812 125.719 57.3125C124.834 56.3333 124.146 55.1562 123.656 53.7812C123.177 52.3958 122.938 50.8333 122.938 49.0938V48.1719C122.938 46.4323 123.177 44.8698 123.656 43.4844C124.146 42.099 124.828 40.9219 125.703 39.9531C126.589 38.974 127.636 38.2292 128.844 37.7188C130.063 37.1979 131.406 36.9375 132.875 36.9375C134.334 36.9375 135.667 37.1979 136.875 37.7188C138.094 38.2292 139.146 38.974 140.031 39.9531C140.917 40.9219 141.604 42.099 142.094 43.4844C142.584 44.8698 142.828 46.4323 142.828 48.1719ZM137.266 49.0938V48.1406C137.266 47.0156 137.167 46.026 136.969 45.1719C136.781 44.3073 136.5 43.5833 136.125 43C135.75 42.4167 135.287 41.9792 134.735 41.6875C134.193 41.3854 133.573 41.2344 132.875 41.2344C132.146 41.2344 131.511 41.3854 130.969 41.6875C130.427 41.9792 129.974 42.4167 129.61 43C129.245 43.5833 128.969 44.3073 128.781 45.1719C128.604 46.026 128.516 47.0156 128.516 48.1406V49.0938C128.516 50.2083 128.604 51.1979 128.781 52.0625C128.969 52.9167 129.245 53.6406 129.61 54.2344C129.985 54.8281 130.443 55.276 130.985 55.5781C131.537 55.8802 132.177 56.0312 132.906 56.0312C133.604 56.0312 134.224 55.8802 134.766 55.5781C135.308 55.276 135.761 54.8281 136.125 54.2344C136.5 53.6406 136.781 52.9167 136.969 52.0625C137.167 51.1979 137.266 50.2083 137.266 49.0938ZM170.75 52.2812H165.094V48.0469H170.75C171.521 48.0469 172.146 47.9167 172.625 47.6562C173.104 47.3958 173.453 47.0365 173.672 46.5781C173.901 46.1094 174.016 45.5833 174.016 45C174.016 44.375 173.901 43.7969 173.672 43.2656C173.453 42.7344 173.104 42.3073 172.625 41.9844C172.146 41.651 171.521 41.4844 170.75 41.4844H167.156V60H161.672V37.25H170.75C172.573 37.25 174.141 37.5833 175.453 38.25C176.776 38.9167 177.792 39.8333 178.5 41C179.209 42.1562 179.563 43.4792 179.563 44.9688C179.563 46.4375 179.209 47.7188 178.5 48.8125C177.792 49.9062 176.776 50.7604 175.453 51.375C174.141 51.9792 172.573 52.2812 170.75 52.2812ZM225.203 37.25H229.672L234.75 53.0781L239.828 37.25H244.297L236.563 60H232.938L225.203 37.25ZM222.485 37.25H227.11L227.969 54.6875V60H222.485V37.25ZM242.391 37.25H247.031V60H241.531V54.6875L242.391 37.25ZM282.203 55.7812V60H270.078V55.7812H282.203ZM272.031 37.25V60H266.547V37.25H272.031ZM280.641 46.2812V50.3594H270.078V46.2812H280.641ZM282.25 37.25V41.4844H270.078V37.25H282.25ZM303.172 37.25H307.641L312.719 53.0781L317.797 37.25H322.266L314.531 60H310.906L303.172 37.25ZM300.453 37.25H305.078L305.938 54.6875V60H300.453V37.25ZM320.36 37.25H325V60H319.5V54.6875L320.36 37.25ZM353.797 50.3281H347.938L347.906 46.7344H352.656C353.511 46.7344 354.193 46.6406 354.703 46.4531C355.214 46.2552 355.584 45.9688 355.813 45.5938C356.052 45.2188 356.172 44.75 356.172 44.1875C356.172 43.5417 356.052 43.0208 355.813 42.625C355.573 42.2292 355.193 41.9427 354.672 41.7656C354.162 41.5781 353.5 41.4844 352.688 41.4844H350V60H344.516V37.25H352.688C354.094 37.25 355.349 37.3802 356.453 37.6406C357.558 37.8906 358.495 38.276 359.266 38.7969C360.047 39.3177 360.641 39.974 361.047 40.7656C361.453 41.5469 361.656 42.4688 361.656 43.5312C361.656 44.4583 361.459 45.3281 361.063 46.1406C360.667 46.9531 360.005 47.6146 359.078 48.125C358.162 48.625 356.906 48.8854 355.313 48.9062L353.797 50.3281ZM353.578 60H346.61L348.485 55.7812H353.578C354.328 55.7812 354.927 55.6667 355.375 55.4375C355.834 55.1979 356.162 54.8854 356.36 54.5C356.568 54.1042 356.672 53.6667 356.672 53.1875C356.672 52.6042 356.573 52.099 356.375 51.6719C356.188 51.2448 355.886 50.9167 355.469 50.6875C355.052 50.4479 354.495 50.3281 353.797 50.3281H349.188L349.219 46.7344H354.735L356.016 48.1719C357.537 48.1094 358.74 48.3229 359.625 48.8125C360.521 49.3021 361.162 49.9479 361.547 50.75C361.933 51.5521 362.125 52.3906 362.125 53.2656C362.125 54.7552 361.802 56 361.156 57C360.521 58 359.568 58.75 358.297 59.25C357.026 59.75 355.453 60 353.578 60ZM396.828 55.7812V60H384.703V55.7812H396.828ZM386.656 37.25V60H381.172V37.25H386.656ZM395.266 46.2812V50.3594H384.703V46.2812H395.266ZM396.875 37.25V41.4844H384.703V37.25H396.875ZM415.078 37.25H424.031C425.781 37.25 427.302 37.5104 428.594 38.0312C429.886 38.5521 430.88 39.3229 431.578 40.3438C432.287 41.3646 432.641 42.625 432.641 44.125C432.641 45.4271 432.438 46.5156 432.031 47.3906C431.625 48.2656 431.058 48.9896 430.328 49.5625C429.61 50.125 428.771 50.5885 427.813 50.9531L426.016 51.9688H418.5L418.469 47.7344H424.031C424.729 47.7344 425.308 47.6094 425.766 47.3594C426.224 47.1094 426.568 46.7552 426.797 46.2969C427.037 45.8281 427.156 45.2708 427.156 44.625C427.156 43.9688 427.037 43.4062 426.797 42.9375C426.558 42.4688 426.203 42.1094 425.735 41.8594C425.276 41.6094 424.709 41.4844 424.031 41.4844H420.563V60H415.078V37.25ZM427.531 60L422.5 49.9375L428.313 49.9062L433.406 59.7656V60H427.531ZM463.672 53.9531C463.672 53.599 463.62 53.2812 463.516 53C463.412 52.7083 463.219 52.4375 462.938 52.1875C462.656 51.9375 462.25 51.6875 461.719 51.4375C461.198 51.1771 460.511 50.9062 459.656 50.625C458.656 50.2917 457.693 49.9167 456.766 49.5C455.839 49.0729 455.011 48.5781 454.281 48.0156C453.552 47.4427 452.974 46.776 452.547 46.0156C452.12 45.2448 451.906 44.349 451.906 43.3281C451.906 42.349 452.125 41.4688 452.563 40.6875C453 39.8958 453.61 39.224 454.391 38.6719C455.183 38.1094 456.11 37.6823 457.172 37.3906C458.235 37.0885 459.396 36.9375 460.656 36.9375C462.323 36.9375 463.792 37.2292 465.063 37.8125C466.344 38.3854 467.344 39.2031 468.063 40.2656C468.792 41.3177 469.156 42.5625 469.156 44H463.703C463.703 43.4271 463.584 42.9219 463.344 42.4844C463.115 42.0469 462.766 41.7031 462.297 41.4531C461.828 41.2031 461.24 41.0781 460.531 41.0781C459.844 41.0781 459.266 41.1823 458.797 41.3906C458.328 41.599 457.974 41.8802 457.735 42.2344C457.495 42.5781 457.375 42.9583 457.375 43.375C457.375 43.7188 457.469 44.0312 457.656 44.3125C457.854 44.5833 458.13 44.8385 458.485 45.0781C458.849 45.3177 459.287 45.5469 459.797 45.7656C460.318 45.9844 460.901 46.1979 461.547 46.4062C462.755 46.7917 463.828 47.224 464.766 47.7031C465.714 48.1719 466.511 48.7083 467.156 49.3125C467.813 49.9062 468.308 50.5833 468.641 51.3438C468.985 52.1042 469.156 52.9635 469.156 53.9219C469.156 54.9427 468.959 55.849 468.563 56.6406C468.167 57.4323 467.599 58.1042 466.86 58.6562C466.12 59.1979 465.235 59.6094 464.203 59.8906C463.172 60.1719 462.021 60.3125 460.75 60.3125C459.584 60.3125 458.433 60.1667 457.297 59.875C456.172 59.5729 455.151 59.1146 454.235 58.5C453.318 57.875 452.584 57.0781 452.031 56.1094C451.49 55.1302 451.219 53.9688 451.219 52.625H456.719C456.719 53.2917 456.808 53.8542 456.985 54.3125C457.162 54.7708 457.422 55.1406 457.766 55.4219C458.11 55.6927 458.531 55.8906 459.031 56.0156C459.531 56.1302 460.104 56.1875 460.75 56.1875C461.448 56.1875 462.011 56.0885 462.438 55.8906C462.865 55.6823 463.177 55.4115 463.375 55.0781C463.573 54.7344 463.672 54.3594 463.672 53.9531Z" fill="#E0E0E0"/>
<path d="M86.094 68H470.25V69.5625H86.094V68Z" fill="#E0E0E0"/>
</g>
<defs>
<filter id="filter0_f_1111_189" x="0" y="0" width="558" height="104" filterUnits="userSpaceOnUse" color-interpolation-filters="sRGB">
<feFlood flood-opacity="0" result="BackgroundImageFix"/>
<feBlend mode="normal" in="SourceGraphic" in2="BackgroundImageFix" result="shape"/>
<feGaussianBlur stdDeviation="15" result="effect1_foregroundBlur_1111_189"/>
</filter>
<filter id="filter1_i_1111_189" x="86.094" y="36.9375" width="384.156" height="36.625" filterUnits="userSpaceOnUse" color-interpolation-filters="sRGB">
<feFlood flood-opacity="0" result="BackgroundImageFix"/>
<feBlend mode="normal" in="SourceGraphic" in2="BackgroundImageFix" result="shape"/>
<feColorMatrix in="SourceAlpha" type="matrix" values="0 0 0 0 0 0 0 0 0 0 0 0 0 0 0 0 0 0 127 0" result="hardAlpha"/>
<feOffset dy="4"/>
<feGaussianBlur stdDeviation="2"/>
<feComposite in2="hardAlpha" operator="arithmetic" k2="-1" k3="1"/>
<feColorMatrix type="matrix" values="0 0 0 0 0 0 0 0 0 0 0 0 0 0 0 0 0 0 0.25 0"/>
<feBlend mode="normal" in2="shape" result="effect1_innerShadow_1111_189"/>
</filter>
</defs>
</svg>
