<svg width="426" height="104" viewBox="0 0 426 104" fill="none" xmlns="http://www.w3.org/2000/svg">
<g filter="url(#filter0_f_1111_185)">
<rect x="30" y="30" width="366" height="44" fill="#F5F5F5"/>
</g>
<g filter="url(#filter1_i_1111_185)">
<path d="M90.6875 42.0312L85.1406 60H79.25L87.6094 37.25H91.3438L90.6875 42.0312ZM95.2812 60L89.7188 42.0312L89 37.25H92.7812L101.188 60H95.2812ZM95.0625 51.5156V55.75H83.3906V51.5156H95.0625ZM128.141 50.3281H122.281L122.25 46.7344H127C127.854 46.7344 128.536 46.6406 129.047 46.4531C129.557 46.2552 129.927 45.9688 130.156 45.5938C130.396 45.2188 130.516 44.75 130.516 44.1875C130.516 43.5417 130.396 43.0208 130.156 42.625C129.917 42.2292 129.536 41.9427 129.016 41.7656C128.505 41.5781 127.844 41.4844 127.031 41.4844H124.344V60H118.859V37.25H127.031C128.438 37.25 129.693 37.3802 130.797 37.6406C131.901 37.8906 132.839 38.276 133.609 38.7969C134.391 39.3177 134.984 39.974 135.391 40.7656C135.797 41.5469 136 42.4688 136 43.5312C136 44.4583 135.802 45.3281 135.406 46.1406C135.01 46.9531 134.349 47.6146 133.422 48.125C132.505 48.625 131.25 48.8854 129.656 48.9062L128.141 50.3281ZM127.922 60H120.953L122.828 55.7812H127.922C128.672 55.7812 129.271 55.6667 129.719 55.4375C130.177 55.1979 130.505 54.8854 130.703 54.5C130.911 54.1042 131.016 53.6667 131.016 53.1875C131.016 52.6042 130.917 52.099 130.719 51.6719C130.531 51.2448 130.229 50.9167 129.812 50.6875C129.396 50.4479 128.839 50.3281 128.141 50.3281H123.531L123.562 46.7344H129.078L130.359 48.1719C131.88 48.1094 133.083 48.3229 133.969 48.8125C134.865 49.3021 135.505 49.9479 135.891 50.75C136.276 51.5521 136.469 52.3906 136.469 53.2656C136.469 54.7552 136.146 56 135.5 57C134.865 58 133.911 58.75 132.641 59.25C131.37 59.75 129.797 60 127.922 60ZM174.766 48.1719V49.0938C174.766 50.8333 174.521 52.3958 174.031 53.7812C173.552 55.1562 172.87 56.3333 171.984 57.3125C171.099 58.2812 170.052 59.026 168.844 59.5469C167.635 60.0573 166.302 60.3125 164.844 60.3125C163.375 60.3125 162.031 60.0573 160.812 59.5469C159.604 59.026 158.552 58.2812 157.656 57.3125C156.771 56.3333 156.083 55.1562 155.594 53.7812C155.115 52.3958 154.875 50.8333 154.875 49.0938V48.1719C154.875 46.4323 155.115 44.8698 155.594 43.4844C156.083 42.099 156.766 40.9219 157.641 39.9531C158.526 38.974 159.573 38.2292 160.781 37.7188C162 37.1979 163.344 36.9375 164.812 36.9375C166.271 36.9375 167.604 37.1979 168.812 37.7188C170.031 38.2292 171.083 38.974 171.969 39.9531C172.854 40.9219 173.542 42.099 174.031 43.4844C174.521 44.8698 174.766 46.4323 174.766 48.1719ZM169.203 49.0938V48.1406C169.203 47.0156 169.104 46.026 168.906 45.1719C168.719 44.3073 168.438 43.5833 168.062 43C167.688 42.4167 167.224 41.9792 166.672 41.6875C166.13 41.3854 165.51 41.2344 164.812 41.2344C164.083 41.2344 163.448 41.3854 162.906 41.6875C162.365 41.9792 161.911 42.4167 161.547 43C161.182 43.5833 160.906 44.3073 160.719 45.1719C160.542 46.026 160.453 47.0156 160.453 48.1406V49.0938C160.453 50.2083 160.542 51.1979 160.719 52.0625C160.906 52.9167 161.182 53.6406 161.547 54.2344C161.922 54.8281 162.38 55.276 162.922 55.5781C163.474 55.8802 164.115 56.0312 164.844 56.0312C165.542 56.0312 166.161 55.8802 166.703 55.5781C167.245 55.276 167.698 54.8281 168.062 54.2344C168.438 53.6406 168.719 52.9167 168.906 52.0625C169.104 51.1979 169.203 50.2083 169.203 49.0938ZM205.953 37.25H211.438V52.1094C211.438 53.8802 211.068 55.3802 210.328 56.6094C209.589 57.8281 208.552 58.75 207.219 59.375C205.885 60 204.318 60.3125 202.516 60.3125C200.734 60.3125 199.167 60 197.812 59.375C196.469 58.75 195.417 57.8281 194.656 56.6094C193.906 55.3802 193.531 53.8802 193.531 52.1094V37.25H199.031V52.1094C199.031 53.0469 199.167 53.8125 199.438 54.4062C199.708 54.9896 200.104 55.4167 200.625 55.6875C201.146 55.9583 201.776 56.0938 202.516 56.0938C203.266 56.0938 203.896 55.9583 204.406 55.6875C204.917 55.4167 205.302 54.9896 205.562 54.4062C205.823 53.8125 205.953 53.0469 205.953 52.1094V37.25ZM241.906 37.25V60H236.422V37.25H241.906ZM248.75 37.25V41.4844H229.734V37.25H248.75ZM302.453 37.25H307.938V52.1094C307.938 53.8802 307.568 55.3802 306.828 56.6094C306.089 57.8281 305.052 58.75 303.719 59.375C302.385 60 300.818 60.3125 299.016 60.3125C297.234 60.3125 295.667 60 294.312 59.375C292.969 58.75 291.917 57.8281 291.156 56.6094C290.406 55.3802 290.031 53.8802 290.031 52.1094V37.25H295.531V52.1094C295.531 53.0469 295.667 53.8125 295.938 54.4062C296.208 54.9896 296.604 55.4167 297.125 55.6875C297.646 55.9583 298.276 56.0938 299.016 56.0938C299.766 56.0938 300.396 55.9583 300.906 55.6875C301.417 55.4167 301.802 54.9896 302.062 54.4062C302.323 53.8125 302.453 53.0469 302.453 52.1094V37.25ZM339.109 53.9531C339.109 53.599 339.057 53.2812 338.953 53C338.849 52.7083 338.656 52.4375 338.375 52.1875C338.094 51.9375 337.688 51.6875 337.156 51.4375C336.635 51.1771 335.948 50.9062 335.094 50.625C334.094 50.2917 333.13 49.9167 332.203 49.5C331.276 49.0729 330.448 48.5781 329.719 48.0156C328.99 47.4427 328.411 46.776 327.984 46.0156C327.557 45.2448 327.344 44.349 327.344 43.3281C327.344 42.349 327.562 41.4688 328 40.6875C328.438 39.8958 329.047 39.224 329.828 38.6719C330.62 38.1094 331.547 37.6823 332.609 37.3906C333.672 37.0885 334.833 36.9375 336.094 36.9375C337.76 36.9375 339.229 37.2292 340.5 37.8125C341.781 38.3854 342.781 39.2031 343.5 40.2656C344.229 41.3177 344.594 42.5625 344.594 44H339.141C339.141 43.4271 339.021 42.9219 338.781 42.4844C338.552 42.0469 338.203 41.7031 337.734 41.4531C337.266 41.2031 336.677 41.0781 335.969 41.0781C335.281 41.0781 334.703 41.1823 334.234 41.3906C333.766 41.599 333.411 41.8802 333.172 42.2344C332.932 42.5781 332.812 42.9583 332.812 43.375C332.812 43.7188 332.906 44.0312 333.094 44.3125C333.292 44.5833 333.568 44.8385 333.922 45.0781C334.286 45.3177 334.724 45.5469 335.234 45.7656C335.755 45.9844 336.339 46.1979 336.984 46.4062C338.193 46.7917 339.266 47.224 340.203 47.7031C341.151 48.1719 341.948 48.7083 342.594 49.3125C343.25 49.9062 343.745 50.5833 344.078 51.3438C344.422 52.1042 344.594 52.9635 344.594 53.9219C344.594 54.9427 344.396 55.849 344 56.6406C343.604 57.4323 343.036 58.1042 342.297 58.6562C341.557 59.1979 340.672 59.6094 339.641 59.8906C338.609 60.1719 337.458 60.3125 336.188 60.3125C335.021 60.3125 333.87 60.1667 332.734 59.875C331.609 59.5729 330.589 59.1146 329.672 58.5C328.755 57.875 328.021 57.0781 327.469 56.1094C326.927 55.1302 326.656 53.9688 326.656 52.625H332.156C332.156 53.2917 332.245 53.8542 332.422 54.3125C332.599 54.7708 332.859 55.1406 333.203 55.4219C333.547 55.6927 333.969 55.8906 334.469 56.0156C334.969 56.1302 335.542 56.1875 336.188 56.1875C336.885 56.1875 337.448 56.0885 337.875 55.8906C338.302 55.6823 338.615 55.4115 338.812 55.0781C339.01 54.7344 339.109 54.3594 339.109 53.9531Z" fill="#E0E0E0"/>
<path d="M79.3125 68H345.688V69.5625H79.3125V68Z" fill="#E0E0E0"/>
</g>
<defs>
<filter id="filter0_f_1111_185" x="0" y="0" width="426" height="104" filterUnits="userSpaceOnUse" color-interpolation-filters="sRGB">
<feFlood flood-opacity="0" result="BackgroundImageFix"/>
<feBlend mode="normal" in="SourceGraphic" in2="BackgroundImageFix" result="shape"/>
<feGaussianBlur stdDeviation="15" result="effect1_foregroundBlur_1111_185"/>
</filter>
<filter id="filter1_i_1111_185" x="79.25" y="36.9375" width="266.438" height="36.625" filterUnits="userSpaceOnUse" color-interpolation-filters="sRGB">
<feFlood flood-opacity="0" result="BackgroundImageFix"/>
<feBlend mode="normal" in="SourceGraphic" in2="BackgroundImageFix" result="shape"/>
<feColorMatrix in="SourceAlpha" type="matrix" values="0 0 0 0 0 0 0 0 0 0 0 0 0 0 0 0 0 0 127 0" result="hardAlpha"/>
<feOffset dy="4"/>
<feGaussianBlur stdDeviation="2"/>
<feComposite in2="hardAlpha" operator="arithmetic" k2="-1" k3="1"/>
<feColorMatrix type="matrix" values="0 0 0 0 0 0 0 0 0 0 0 0 0 0 0 0 0 0 0.25 0"/>
<feBlend mode="normal" in2="shape" result="effect1_innerShadow_1111_185"/>
</filter>
</defs>
</svg>
